<svg width="106" height="33" viewBox="0 0 106 33" fill="none" xmlns="http://www.w3.org/2000/svg">
<path d="M4.66 11.3H11.38V13.9H4.66V11.3ZM4.9 19H1.66V5H12.24V7.6H4.9V19ZM21.0967 19.24C19.9901 19.24 18.9634 19.06 18.0167 18.7C17.0834 18.34 16.2701 17.8333 15.5767 17.18C14.8967 16.5267 14.3634 15.76 13.9767 14.88C13.6034 14 13.4167 13.04 13.4167 12C13.4167 10.96 13.6034 10 13.9767 9.12C14.3634 8.24 14.9034 7.47333 15.5967 6.82C16.2901 6.16667 17.1034 5.66 18.0367 5.3C18.9701 4.94 19.9834 4.76 21.0767 4.76C22.1834 4.76 23.1967 4.94 24.1167 5.3C25.0501 5.66 25.8567 6.16667 26.5367 6.82C27.2301 7.47333 27.7701 8.24 28.1567 9.12C28.5434 9.98667 28.7367 10.9467 28.7367 12C28.7367 13.04 28.5434 14.0067 28.1567 14.9C27.7701 15.78 27.2301 16.5467 26.5367 17.2C25.8567 17.84 25.0501 18.34 24.1167 18.7C23.1967 19.06 22.1901 19.24 21.0967 19.24ZM21.0767 16.48C21.7034 16.48 22.2767 16.3733 22.7967 16.16C23.3301 15.9467 23.7967 15.64 24.1967 15.24C24.5967 14.84 24.9034 14.3667 25.1167 13.82C25.3434 13.2733 25.4567 12.6667 25.4567 12C25.4567 11.3333 25.3434 10.7267 25.1167 10.18C24.9034 9.63333 24.5967 9.16 24.1967 8.76C23.8101 8.36 23.3501 8.05333 22.8167 7.84C22.2834 7.62667 21.7034 7.52 21.0767 7.52C20.4501 7.52 19.8701 7.62667 19.3367 7.84C18.8167 8.05333 18.3567 8.36 17.9567 8.76C17.5567 9.16 17.2434 9.63333 17.0167 10.18C16.8034 10.7267 16.6967 11.3333 16.6967 12C16.6967 12.6533 16.8034 13.26 17.0167 13.82C17.2434 14.3667 17.5501 14.84 17.9367 15.24C18.3367 15.64 18.8034 15.9467 19.3367 16.16C19.8701 16.3733 20.4501 16.48 21.0767 16.48ZM31.1717 19V5H37.2317C38.4851 5 39.5651 5.20667 40.4717 5.62C41.3784 6.02 42.0784 6.6 42.5717 7.36C43.0651 8.12 43.3117 9.02667 43.3117 10.08C43.3117 11.12 43.0651 12.02 42.5717 12.78C42.0784 13.5267 41.3784 14.1 40.4717 14.5C39.5651 14.9 38.4851 15.1 37.2317 15.1H32.9717L34.4117 13.68V19H31.1717ZM40.0717 19L36.5717 13.92H40.0317L43.5717 19H40.0717ZM34.4117 14.04L32.9717 12.52H37.0517C38.0517 12.52 38.7984 12.3067 39.2917 11.88C39.7851 11.44 40.0317 10.84 40.0317 10.08C40.0317 9.30667 39.7851 8.70667 39.2917 8.28C38.7984 7.85333 38.0517 7.64 37.0517 7.64H32.9717L34.4117 6.1V14.04ZM52.0988 19.24C50.1121 19.24 48.5588 18.6867 47.4388 17.58C46.3188 16.4733 45.7588 14.8933 45.7588 12.84V5H48.9988V12.72C48.9988 14.0533 49.2721 15.0133 49.8188 15.6C50.3654 16.1867 51.1321 16.48 52.1188 16.48C53.1054 16.48 53.8721 16.1867 54.4188 15.6C54.9654 15.0133 55.2387 14.0533 55.2387 12.72V5H58.4388V12.84C58.4388 14.8933 57.8788 16.4733 56.7588 17.58C55.6388 18.6867 54.0854 19.24 52.0988 19.24ZM61.6405 19V5H64.3205L70.2805 14.88H68.8605L74.7205 5H77.3805L77.4205 19H74.3805L74.3605 9.66H74.9205L70.2405 17.52H68.7805L64.0005 9.66H64.6805V19H61.6405ZM83.742 11.3H90.462V13.9H83.742V11.3ZM83.982 19H80.742V5H91.322V7.6H83.982V19ZM96.9955 19V13.28L97.7355 15.24L91.5755 5H95.0155L99.7355 12.86H97.7555L102.495 5H105.675L99.5155 15.24L100.235 13.28V19H96.9955Z" fill="white"/>
<path d="M66.67 31.03C66.2033 31.03 65.7833 30.9233 65.41 30.71C65.0367 30.49 64.74 30.1833 64.52 29.79C64.3067 29.39 64.2 28.93 64.2 28.41C64.2 27.8833 64.3067 27.4233 64.52 27.03C64.74 26.63 65.0367 26.32 65.41 26.1C65.7833 25.88 66.2033 25.77 66.67 25.77C67.15 25.77 67.58 25.8833 67.96 26.11C68.3467 26.3367 68.65 26.6467 68.87 27.04C69.0967 27.4333 69.21 27.89 69.21 28.41C69.21 28.9233 69.0967 29.3767 68.87 29.77C68.65 30.1633 68.3467 30.4733 67.96 30.7C67.58 30.92 67.15 31.03 66.67 31.03ZM64.11 32.94V25.81H64.43V27.63L64.34 28.42L64.44 29.21V32.94H64.11ZM66.66 30.73C67.08 30.73 67.4567 30.6333 67.79 30.44C68.13 30.2467 68.3967 29.9733 68.59 29.62C68.7833 29.2667 68.88 28.8633 68.88 28.41C68.88 27.9433 68.7833 27.5367 68.59 27.19C68.3967 26.8433 68.13 26.5733 67.79 26.38C67.4567 26.18 67.08 26.08 66.66 26.08C66.2333 26.08 65.8533 26.18 65.52 26.38C65.1867 26.5733 64.9233 26.8433 64.73 27.19C64.5367 27.5367 64.44 27.9433 64.44 28.41C64.44 28.8633 64.5367 29.2667 64.73 29.62C64.9233 29.9733 65.1867 30.2467 65.52 30.44C65.8533 30.6333 66.2333 30.73 66.66 30.73ZM70.8385 31V23.58H71.1685V31H70.8385ZM76.6873 31V29.79L76.6773 29.61V27.64C76.6773 27.1267 76.5407 26.7367 76.2673 26.47C75.994 26.2033 75.5973 26.07 75.0773 26.07C74.6973 26.07 74.3507 26.1367 74.0373 26.27C73.724 26.3967 73.454 26.5633 73.2273 26.77L73.0473 26.53C73.294 26.2967 73.5973 26.1133 73.9573 25.98C74.3173 25.84 74.694 25.77 75.0873 25.77C75.7073 25.77 76.1807 25.93 76.5073 26.25C76.8407 26.5633 77.0073 27.0267 77.0073 27.64V31H76.6873ZM74.7573 31.03C74.364 31.03 74.0273 30.97 73.7473 30.85C73.474 30.73 73.264 30.56 73.1173 30.34C72.9707 30.1133 72.8973 29.8567 72.8973 29.57C72.8973 29.3167 72.9573 29.0833 73.0773 28.87C73.1973 28.65 73.394 28.4767 73.6673 28.35C73.9473 28.2167 74.3207 28.15 74.7873 28.15H76.7973V28.42H74.7873C74.2207 28.42 73.8173 28.5267 73.5773 28.74C73.344 28.9533 73.2273 29.2233 73.2273 29.55C73.2273 29.9167 73.364 30.21 73.6373 30.43C73.9107 30.6433 74.2907 30.75 74.7773 30.75C75.2573 30.75 75.654 30.6433 75.9673 30.43C76.2807 30.21 76.5173 29.9 76.6773 29.5L76.7873 29.72C76.654 30.1133 76.414 30.43 76.0673 30.67C75.7207 30.91 75.284 31.03 74.7573 31.03ZM80.5786 31.03C80.1519 31.03 79.8253 30.91 79.5986 30.67C79.3719 30.43 79.2586 30.1067 79.2586 29.7V24.67H79.5886V29.65C79.5886 30.0033 79.6753 30.2733 79.8486 30.46C80.0219 30.6467 80.2753 30.74 80.6086 30.74C80.9486 30.74 81.2286 30.6367 81.4486 30.43L81.6186 30.67C81.4919 30.79 81.3353 30.88 81.1486 30.94C80.9619 31 80.7719 31.03 80.5786 31.03ZM78.2786 26.1V25.81H81.2986V26.1H78.2786ZM83.1746 31V24.89C83.1746 24.4833 83.2879 24.16 83.5146 23.92C83.7479 23.6733 84.0779 23.55 84.5046 23.55C84.6979 23.55 84.8846 23.58 85.0646 23.64C85.2513 23.6933 85.4079 23.78 85.5346 23.9L85.3646 24.15C85.2579 24.0433 85.1313 23.9667 84.9846 23.92C84.8379 23.8667 84.6846 23.84 84.5246 23.84C84.1913 23.84 83.9379 23.9333 83.7646 24.12C83.5913 24.3067 83.5046 24.5767 83.5046 24.93V25.88V26.04V31H83.1746ZM82.1946 26.1V25.81H85.2146V26.1H82.1946ZM88.1305 31.03C87.6439 31.03 87.2072 30.92 86.8205 30.7C86.4405 30.4733 86.1372 30.16 85.9105 29.76C85.6905 29.36 85.5805 28.9067 85.5805 28.4C85.5805 27.8867 85.6905 27.4333 85.9105 27.04C86.1372 26.6467 86.4405 26.3367 86.8205 26.11C87.2072 25.8833 87.6439 25.77 88.1305 25.77C88.6172 25.77 89.0539 25.8833 89.4405 26.11C89.8272 26.3367 90.1305 26.6467 90.3505 27.04C90.5705 27.4333 90.6805 27.8867 90.6805 28.4C90.6805 28.9067 90.5705 29.36 90.3505 29.76C90.1305 30.16 89.8272 30.4733 89.4405 30.7C89.0539 30.92 88.6172 31.03 88.1305 31.03ZM88.1305 30.73C88.5572 30.73 88.9372 30.6333 89.2705 30.44C89.6105 30.24 89.8739 29.9633 90.0605 29.61C90.2539 29.2567 90.3505 28.8533 90.3505 28.4C90.3505 27.94 90.2539 27.5367 90.0605 27.19C89.8739 26.8367 89.6105 26.5633 89.2705 26.37C88.9372 26.1767 88.5572 26.08 88.1305 26.08C87.7105 26.08 87.3339 26.1767 87.0005 26.37C86.6672 26.5633 86.4005 26.8367 86.2005 27.19C86.0072 27.5367 85.9105 27.94 85.9105 28.4C85.9105 28.8533 86.0072 29.2567 86.2005 29.61C86.4005 29.9633 86.6672 30.24 87.0005 30.44C87.3339 30.6333 87.7105 30.73 88.1305 30.73ZM92.3131 31V25.81H92.6331V27.24L92.6031 27.15C92.7431 26.7167 92.9865 26.38 93.3331 26.14C93.6865 25.8933 94.1265 25.77 94.6531 25.77V26.1C94.6398 26.1 94.6231 26.1 94.6031 26.1C94.5898 26.1 94.5765 26.1 94.5631 26.1C93.9631 26.1 93.4931 26.29 93.1531 26.67C92.8131 27.05 92.6431 27.5733 92.6431 28.24V31H92.3131ZM102.562 25.77C102.982 25.77 103.342 25.8533 103.642 26.02C103.949 26.1867 104.186 26.4333 104.352 26.76C104.519 27.08 104.602 27.4767 104.602 27.95V31H104.272V27.97C104.272 27.35 104.119 26.88 103.812 26.56C103.512 26.24 103.089 26.08 102.542 26.08C102.129 26.08 101.769 26.1667 101.462 26.34C101.156 26.5133 100.919 26.76 100.752 27.08C100.592 27.4 100.512 27.7733 100.512 28.2V31H100.182V27.97C100.182 27.35 100.032 26.88 99.7322 26.56C99.4322 26.24 99.0089 26.08 98.4622 26.08C98.0422 26.08 97.6789 26.1667 97.3722 26.34C97.0722 26.5133 96.8389 26.76 96.6722 27.08C96.5122 27.4 96.4322 27.7733 96.4322 28.2V31H96.1022V25.81H96.4222V27.26L96.3822 27.17C96.5355 26.7433 96.7922 26.4033 97.1522 26.15C97.5122 25.8967 97.9555 25.77 98.4822 25.77C99.0155 25.77 99.4555 25.9033 99.8022 26.17C100.156 26.4367 100.376 26.8367 100.462 27.37L100.372 27.33C100.506 26.87 100.762 26.4967 101.142 26.21C101.522 25.9167 101.996 25.77 102.562 25.77Z" fill="white"/>
</svg>
